<?xml version="1.0" encoding="iso-8859-1"?>
<!-- Generator: Adobe Illustrator 19.0.0, SVG Export Plug-In . SVG Version: 6.00 Build 0)  -->
<svg version="1.1" id="Capa_1" xmlns="http://www.w3.org/2000/svg" xmlns:xlink="http://www.w3.org/1999/xlink" x="0px" y="0px"
	 viewBox="0 0 512.001 512.001" style="enable-background:new 0 0 512.001 512.001;" xml:space="preserve">
<g>
	<g>
		<path d="M493.35,482.003h-50.124V113.812C443.226,51.056,392.17,0,329.415,0H182.772C120.017,0,68.961,51.056,68.961,113.812
			v368.192h-50.31c-8.283,0-14.998,6.715-14.998,14.998s6.715,14.998,14.998,14.998h65.215c6.231,0,11.572-3.801,13.838-9.209
			c0.802-1.837,1.254-3.862,1.254-5.993V113.812c0-46.216,37.599-83.815,83.814-83.815h146.643
			c46.215,0,83.814,37.599,83.814,83.815v381.556c-0.058,0.537-0.093,1.081-0.093,1.634c0,8.283,6.715,14.998,14.998,14.998h65.215
			c8.283,0,14.998-6.715,14.998-14.998S501.634,482.003,493.35,482.003z"/>
	</g>
</g>
<g>
	<g>
		<path d="M328.722,60.302H183.465c-29.043,0-52.67,23.628-52.67,52.67V492.52c0,10.629,8.647,19.276,19.276,19.276h212.047
			c10.629,0,19.276-8.647,19.276-19.276V112.972C381.392,83.929,357.765,60.302,328.722,60.302z M317.594,301.047h-33.549
			c-8.283,0-14.998-6.715-14.998-14.998s6.715-14.998,14.998-14.998h33.549c8.283,0,14.998,6.715,14.998,14.998
			S325.877,301.047,317.594,301.047z"/>
	</g>
</g>
<g>
</g>
<g>
</g>
<g>
</g>
<g>
</g>
<g>
</g>
<g>
</g>
<g>
</g>
<g>
</g>
<g>
</g>
<g>
</g>
<g>
</g>
<g>
</g>
<g>
</g>
<g>
</g>
<g>
</g>
</svg>
