<svg id="Capa_1" enable-background="new 0 0 511.976 511.976" height="512" viewBox="0 0 511.976 511.976" width="512" xmlns="http://www.w3.org/2000/svg"><g><g><g><path d="m468.31 90.262c-32.5-46.314-81.124-77.226-136.915-87.039-36.946-6.499-74.978-3.129-109.987 9.75-30.389 11.178-57.934 29.245-80.281 52.568-15.446-19.644-43.862-24.04-64.597-9.547l-21.692 15.159c-30.554 21.354-45.135 39.233-48.757 59.784-3.281 18.616 2.973 38.378 19.684 62.19l195.291 278.299c20.363 29.019 40.504 40.552 61.527 40.55 19.967-.002 40.731-10.409 63.217-26.125l21.691-15.16c10.402-7.27 17.344-18.149 19.544-30.636 2.132-12.092-.431-24.287-7.219-34.472 29.628-13.013 56.077-32.716 76.989-57.443 24.023-28.405 40.157-62.874 46.657-99.683 9.835-55.693-2.649-111.874-35.152-158.195zm-100.972 346.321c-1.272 7.218-5.287 13.509-11.305 17.715l-21.691 15.16c-46.397 32.427-69.04 30.204-96.916-9.521l-195.291-278.298c-13.459-19.181-18.657-34.188-16.358-47.231 2.578-14.626 15.074-29.078 40.518-46.861l21.691-15.159c12.429-8.687 29.623-5.665 38.327 6.737l48.209 68.7c2.037 2.902 2.69 6.396 1.84 9.835-.853 3.447-3.066 6.241-6.234 7.867l-46.308 23.766c-2.569 1.318-4.443 3.683-5.139 6.485s-.147 5.769 1.506 8.136l35.983 51.533c3.162 4.529 9.396 5.636 13.924 2.475 4.528-3.162 5.636-9.396 2.474-13.924l-29.426-42.142 36.117-18.536c8.269-4.243 14.29-11.847 16.519-20.86 2.227-9.005.446-18.526-4.884-26.123l-10.599-15.105c33.462-42.023 86.522-62.253 139.619-52.911 38.318 6.74 71.747 28.02 94.13 59.917 22.378 31.892 30.984 70.51 24.233 108.739-9.362 53.012-46.547 95.836-97.574 112.841l-9.757-13.905c-5.328-7.592-13.677-12.513-22.907-13.499-9.236-.987-18.441 2.059-25.258 8.357l-29.872 27.599-28.693-40.278c-3.204-4.499-9.449-5.548-13.947-2.343-4.498 3.204-5.547 9.448-2.342 13.946l35.283 49.528c1.667 2.34 4.259 3.85 7.117 4.146 2.861.293 5.704-.653 7.814-2.603l38.213-35.306c2.616-2.417 6.01-3.542 9.559-3.16 3.544.379 6.62 2.19 8.663 5.101l48.21 68.702c4.205 5.998 5.823 13.271 4.552 20.48zm116.428-191.604c-11.35 64.27-55.43 118.872-115.679 143.865l-15.464-22.036c24.736-9.259 46.985-24.294 64.859-43.92 21.044-23.105 35.044-51.61 40.488-82.433 7.682-43.5-2.104-87.434-27.557-123.706-25.448-36.267-63.461-60.461-107.036-68.126-30.823-5.421-62.395-2.057-91.301 9.733-24.654 10.055-46.479 25.814-63.693 45.902l-15.473-22.05c44.142-47.958 110.591-70.622 175.02-59.288 50.535 8.889 94.575 36.885 124.008 78.83 29.43 41.94 40.733 92.806 31.828 143.229z"/><path d="m254.123 234.021c1.542-8.635-2.326-20.81-18.302-26.701-6.387-2.356-12.369-4.91-14.747-5.944-.11-.162-.187-.405-.133-.778.134-.931 1.021-1.708 2.435-2.134 6.493-1.958 12.802 3.021 12.864 3.071 2.61.735 5.414.037 7.376-1.835l1.99-1.9c3.587-3.425 3.05-9.328-1.134-11.991-7.288-4.638-17.603-9.284-26.864-6.495-8.908 2.684-15.216 9.75-16.464 18.442-1.181 8.226 2.389 16.141 9.315 20.656.441.288.905.541 1.387.755.331.148 8.199 3.65 17.054 6.917 3.438 1.269 5.766 3.128 5.535 4.423-.25 1.396-2.553 4.005-6.981 4.005-4.802 0-9.393-1.903-12.282-5.092-3.794-4.188-10.326-4.416-14.404-.432-3.948 3.855-3.691 10.422.107 14.426 6.7 7.063 16.341 11.099 26.58 11.099 13.332-.002 24.548-8.619 26.668-20.492z"/><path d="m372.782 254.511c13.334 0 24.55-8.617 26.67-20.49 1.542-8.635-2.327-20.81-18.302-26.701-6.387-2.356-12.369-4.91-14.747-5.944-.11-.162-.187-.405-.133-.779.133-.93 1.021-1.707 2.435-2.133 6.492-1.958 12.801 3.021 12.864 3.071 3.707 1.321 7.843.139 10.293-2.94l.472-.593c3.571-4.489 2.231-11.142-2.833-13.836-7.518-4-17.743-7.509-26.564-4.852-8.908 2.684-15.216 9.75-16.464 18.441-1.181 8.227 2.389 16.142 9.315 20.657.442.288.905.541 1.387.755.331.148 8.199 3.65 17.054 6.917 3.438 1.269 5.766 3.128 5.535 4.423-.249 1.396-2.553 4.005-6.981 4.005-4.802 0-9.394-1.903-12.283-5.092-3.794-4.188-10.325-4.416-14.404-.433-3.948 3.855-3.692 10.422.106 14.426 6.7 7.062 16.341 11.098 26.58 11.098z"/><path d="m299.765 254.511c21.094 0 38.255-17.161 38.255-38.255 0-21.095-17.161-38.256-38.255-38.256s-38.255 17.161-38.255 38.256c-.001 21.094 17.161 38.255 38.255 38.255zm0-56.511c10.066 0 18.255 8.189 18.255 18.256 0 10.065-8.189 18.255-18.255 18.255s-18.255-8.189-18.255-18.255c-.001-10.066 8.189-18.256 18.255-18.256z"/><path d="m199.563 283.136c-1.531-3.737-5.322-6.208-9.35-6.172-4.2.037-8 2.815-9.35 6.781-1.346 3.953-.021 8.441 3.245 11.042 3.264 2.599 7.949 2.869 11.492.665 4.092-2.547 5.821-7.86 3.963-12.316z"/></g></g></g></svg>